<svg xmlns="http://www.w3.org/2000/svg"  viewBox="0 0 80 80" width="80px" height="80px"><path d="M 39.765625 13.753906 C 29.300781 13.753906 19.515625 14.535156 14.15625 15.671875 L 14.140625 15.671875 C 10.371094 16.53125 6.988281 19.179688 6.277344 23.261719 L 6.273438 23.265625 L 6.273438 23.269531 C 5.636719 27.109375 5 32.839844 5 40 C 5 47.152344 5.632813 52.730469 6.4375 56.75 C 7.15625 60.683594 10.5 63.460938 14.296875 64.324219 L 14.3125 64.328125 L 14.324219 64.328125 C 19.972656 65.460938 29.457031 66.242188 39.921875 66.242188 C 50.386719 66.242188 59.871094 65.460938 65.519531 64.328125 L 65.53125 64.328125 L 65.546875 64.324219 C 69.316406 63.46875 72.699219 60.820313 73.40625 56.738281 L 73.410156 56.730469 L 73.410156 56.722656 C 74.042969 52.761719 74.839844 47.027344 75 39.863281 L 75 39.84375 C 75 32.675781 74.207031 26.9375 73.40625 22.9375 C 72.691406 19.003906 69.34375 16.222656 65.546875 15.359375 L 65.503906 15.347656 L 65.464844 15.34375 C 59.875 14.546875 50.226563 13.753906 39.765625 13.753906 Z M 39.765625 15.753906 C 50.101563 15.753906 59.667969 16.539063 65.128906 17.316406 C 68.261719 18.039063 70.894531 20.300781 71.4375 23.296875 L 71.441406 23.304688 L 71.441406 23.3125 C 72.222656 27.199219 73 32.808594 73 39.828125 C 72.84375 46.855469 72.066406 52.472656 71.4375 56.394531 C 70.886719 59.566406 68.277344 61.648438 65.113281 62.371094 C 59.714844 63.449219 50.277344 64.242188 39.921875 64.242188 C 29.566406 64.242188 20.128906 63.449219 14.730469 62.371094 C 11.59375 61.652344 8.949219 59.390625 8.40625 56.386719 L 8.398438 56.371094 C 7.625 52.5 7 47.039063 7 40 C 7 32.960938 7.625 27.335938 8.25 23.605469 C 8.800781 20.429688 11.410156 18.347656 14.582031 17.625 C 19.640625 16.554688 29.40625 15.753906 39.765625 15.753906 Z M 15 23 C 14.449219 23 14 23.449219 14 24 C 14 24.550781 14.449219 25 15 25 C 15.550781 25 16 24.550781 16 24 C 16 23.449219 15.550781 23 15 23 Z M 31 25.269531 L 31 54.730469 L 56.613281 40 Z M 14 27 C 13.449219 27 13 27.449219 13 28 C 13 28.550781 13.449219 29 14 29 C 14.550781 29 15 28.550781 15 28 C 15 27.449219 14.550781 27 14 27 Z M 33 28.730469 L 52.605469 40 L 33 51.269531 Z M 14 31 C 13.449219 31 13 31.449219 13 32 C 13 32.550781 13.449219 33 14 33 C 14.550781 33 15 32.550781 15 32 C 15 31.449219 14.550781 31 14 31 Z M 36 33 C 35.449219 33 35 33.449219 35 34 C 35 34.550781 35.449219 35 36 35 C 36.550781 35 37 34.550781 37 34 C 37 33.449219 36.550781 33 36 33 Z M 14 35 C 13.449219 35 13 35.449219 13 36 C 13 36.550781 13.449219 37 14 37 C 14.550781 37 15 36.550781 15 36 C 15 35.449219 14.550781 35 14 35 Z M 36 37 C 35.449219 37 35 37.449219 35 38 C 35 38.550781 35.449219 39 36 39 C 36.550781 39 37 38.550781 37 38 C 37 37.449219 36.550781 37 36 37 Z M 14 39 C 13.449219 39 13 39.449219 13 40 C 13 40.550781 13.449219 41 14 41 C 14.550781 41 15 40.550781 15 40 C 15 39.449219 14.550781 39 14 39 Z M 36 41 C 35.449219 41 35 41.449219 35 42 C 35 42.550781 35.449219 43 36 43 C 36.550781 43 37 42.550781 37 42 C 37 41.449219 36.550781 41 36 41 Z M 14 43 C 13.449219 43 13 43.449219 13 44 C 13 44.550781 13.449219 45 14 45 C 14.550781 45 15 44.550781 15 44 C 15 43.449219 14.550781 43 14 43 Z M 36 45 C 35.449219 45 35 45.449219 35 46 C 35 46.550781 35.449219 47 36 47 C 36.550781 47 37 46.550781 37 46 C 37 45.449219 36.550781 45 36 45 Z M 14 47 C 13.449219 47 13 47.449219 13 48 C 13 48.550781 13.449219 49 14 49 C 14.550781 49 15 48.550781 15 48 C 15 47.449219 14.550781 47 14 47 Z M 14 51 C 13.449219 51 13 51.449219 13 52 C 13 52.550781 13.449219 53 14 53 C 14.550781 53 15 52.550781 15 52 C 15 51.449219 14.550781 51 14 51 Z M 15 55 C 14.449219 55 14 55.449219 14 56 C 14 56.550781 14.449219 57 15 57 C 15.550781 57 16 56.550781 16 56 C 16 55.449219 15.550781 55 15 55 Z"/></svg>